<svg xmlns="http://www.w3.org/2000/svg" viewBox="0 0 32 32" width="31" height="31" style="border-color: rgba(0,0,0,0);border-width: bpx;border-style: undefined" filter="none">
    
    <g>
    <path d="M10 4.4c-0.6-0.2-1.2-0.4-2-0.4-3.4 0-6 2.6-6 6 0 1 0.2 1.8 0.6 2.8 1.2-3.8 4-6.8 7.4-8.4zM24 4c-0.8 0-1.4 0.2-2 0.4 3.4 1.6 6.2 4.6 7.4 8.4 0.4-1 0.6-1.8 0.6-2.8 0-3.4-2.6-6-6-6z" fill="rgba(16.065,16.065,16.065,1)"></path><path d="M28 17c0-6.6-5.4-12-12-12s-12 5.4-12 12c0 3.8 1.8 7.2 4.6 9.4l-1.6 3 1.8 0.8 1.4-2.8c1.8 1 3.8 1.6 5.8 1.6s4-0.6 5.6-1.4l1.4 2.8 1.8-0.8-1.6-3c3-2.4 4.8-5.8 4.8-9.6zM14 18v-8h2v6h6v2h-8z" fill="rgba(16.065,16.065,16.065,1)"></path>
    </g>
  </svg>