<svg xmlns="http://www.w3.org/2000/svg" viewBox="0 0 32 32" width="42" height="42" style="border-color: rgba(0,0,0,0);border-width: bpx;border-style: undefined" filter="none">
    
    <g>
    <path d="M16 27.429c6.312 0 11.429-5.117 11.429-11.429s-5.117-11.429-11.429-11.429c-6.312 0-11.429 5.117-11.429 11.429s5.117 11.429 11.429 11.429zM16 29.333c-7.364 0-13.333-5.97-13.333-13.333s5.97-13.333 13.333-13.333c7.364 0 13.333 5.97 13.333 13.333s-5.97 13.333-13.333 13.333z" fill="rgba(16.065,16.065,16.065,1)"></path><path d="M12.628 12.571c0 0.842-0.682 1.524-1.524 1.524s-1.524-0.682-1.524-1.524c0-0.842 0.682-1.524 1.524-1.524s1.524 0.682 1.524 1.524z" fill="rgba(16.065,16.065,16.065,1)"></path><path d="M22.504 12.571c0 0.842-0.682 1.524-1.524 1.524s-1.524-0.682-1.524-1.524c0-0.842 0.682-1.524 1.524-1.524s1.524 0.682 1.524 1.524z" fill="rgba(16.065,16.065,16.065,1)"></path><path d="M21.908 17.587c0.175-0.496 0.719-0.756 1.215-0.581s0.756 0.719 0.581 1.215c-1.134 3.208-4.176 5.397-7.634 5.397s-6.5-2.188-7.634-5.397c-0.175-0.496 0.085-1.040 0.581-1.215s1.040 0.085 1.215 0.581c0.867 2.453 3.194 4.127 5.839 4.127s4.971-1.674 5.838-4.127z" fill="rgba(16.065,16.065,16.065,1)"></path>
    </g>
  </svg>